<?xml version="1.0" encoding="UTF-8" standalone="no"?>
<!-- Created with Inkscape (http://www.inkscape.org/) -->

<svg
   width="381.63452mm"
   height="95.093857mm"
   viewBox="0 0 381.63452 95.093857"
   version="1.1"
   id="svg1"
   xml:space="preserve"
   xmlns="http://www.w3.org/2000/svg"
   xmlns:svg="http://www.w3.org/2000/svg"><defs
     id="defs1"><linearGradient
       id="swatch1"><stop
         style="stop-color:#000000;stop-opacity:1;"
         offset="0"
         id="stop1" /></linearGradient></defs><g
     id="layer1"
     transform="translate(-0.0918559,-25.100442)"><g
       id="g12"><g
         id="g14"><path
           style="fill:none;stroke:#008000;stroke-width:0.983081;stroke-dasharray:none;paint-order:markers fill stroke"
           d="M 44.881039,25.796198 89.342105,70.13665 44.954674,114.43426 0.78553617,70.167994 Z"
           id="path6" /></g></g><g
       id="g13"><g
         id="g11"><g
           id="g15"><path
             style="fill:none;stroke:#008000;stroke-width:0.983928;stroke-dasharray:none"
             d="M 44.820034,30.583491 89.220036,75.06171 44.893567,119.49696 0.78509334,75.093153 Z"
             id="path6-8" /></g></g></g><g
       id="g10"><g
         id="g9"><path
           style="display:inline;fill:#008080;stroke:#008080;stroke-width:1;stroke-dasharray:none;paint-order:stroke markers fill"
           d="M 19.330172,51.603796 40.04012,72.362625 19.275979,93.757415 11.386753,85.631231 24.109186,72.618178 11.224176,59.740074 Z"
           id="path7" /></g></g><path
       style="fill:#008080;stroke:#008080;stroke-width:1;stroke-dasharray:none"
       d="M 23.955044,97.986392 44.713873,77.276444 66.108663,98.040585 57.982479,105.92981 44.969426,93.207378 32.091322,106.09239 Z"
       id="path7-7" /><path
       style="fill:#008080;stroke:#008080;stroke-width:1;stroke-dasharray:none"
       d="M 65.974856,46.923812 45.216027,67.63376 23.821237,46.869622 31.947421,38.980392 44.960474,51.702826 57.838578,38.817812 Z"
       id="path7-7-4" /><path
       style="fill:#008080;stroke:#008080;stroke-width:1;stroke-dasharray:none"
       d="M 70.455248,93.393179 49.7453,72.63435 70.509441,51.23956 78.398662,59.365744 65.676234,72.378797 78.561242,85.256901 Z"
       id="path7-7-0" /><path
       style="fill:#008000;stroke:#008080;stroke-width:1;stroke-dasharray:none"
       d="M 27.408539,60.050883 39.967333,72.40194 27.675781,85.400117 19.678171,77.772288 24.34827,72.642618 20.092051,68.179724 Z"
       id="path8" /><path
       style="fill:#008000;stroke:#008080;stroke-width:1;stroke-dasharray:none"
       d="m 32.431833,90.05462 12.351057,-12.558794 12.998179,12.291552 -7.627831,7.99761 -5.12967,-4.670099 -4.462894,4.256219 z"
       id="path8-3" /><path
       style="fill:#008000;stroke:#008080;stroke-width:1;stroke-dasharray:none"
       d="M 62.862604,84.633903 50.30381,72.282846 62.595362,59.284667 l 7.99761,7.627831 -4.670099,5.12967 4.256219,4.462894 z"
       id="path8-3-7" /><path
       style="fill:#008000;stroke:#008080;stroke-width:1;stroke-dasharray:none"
       d="M 57.588225,54.87263 45.237168,67.431424 32.238989,55.139872 l 7.627831,-7.99761 5.12967,4.670099 4.462894,-4.256219 z"
       id="path8-3-7-4" /><rect
       style="fill:#008000;stroke:#008080;stroke-width:1.43554;stroke-dasharray:none"
       id="rect9"
       width="6.8817887"
       height="6.7010083"
       x="58.360584"
       y="-4.6319551"
       transform="matrix(0.70604992,0.70816207,-0.73256474,0.68069737,0,0)" /><rect
       style="fill:#008000;stroke:#008080;stroke-width:1.43554;stroke-dasharray:none"
       id="rect9-8"
       width="6.8817887"
       height="6.7010083"
       x="99.982986"
       y="-4.7951407"
       transform="matrix(0.70604992,0.70816207,-0.73256474,0.68069737,0,0)" /><rect
       style="fill:#008000;stroke:#008080;stroke-width:1.43554;stroke-dasharray:none"
       id="rect9-7"
       width="6.8817887"
       height="6.7010083"
       x="60.592892"
       y="36.833649"
       transform="matrix(0.70604992,0.70816207,-0.73256474,0.68069737,0,0)" /><rect
       style="fill:#008000;stroke:#008080;stroke-width:1.43554;stroke-dasharray:none"
       id="rect9-2"
       width="6.8817887"
       height="6.7010083"
       x="102.0838"
       y="36.680286"
       transform="matrix(0.70604992,0.70816207,-0.73256474,0.68069737,0,0)" /><text
       xml:space="preserve"
       style="font-style:normal;font-variant:normal;font-weight:normal;font-stretch:normal;font-size:11.2889px;font-family:sans-serif;-inkscape-font-specification:'sans-serif, Normal';font-variant-ligatures:normal;font-variant-caps:normal;font-variant-numeric:normal;font-variant-east-asian:normal;fill:#008000;stroke:none;stroke-width:1;stroke-dasharray:none;paint-order:stroke markers fill"
       x="89.79142"
       y="59.144131"
       id="text15"><tspan
         id="tspan15"
         style="font-style:normal;font-variant:normal;font-weight:normal;font-stretch:normal;font-size:11.2889px;font-family:sans-serif;-inkscape-font-specification:'sans-serif, Normal';font-variant-ligatures:normal;font-variant-caps:normal;font-variant-numeric:normal;font-variant-east-asian:normal;stroke:none;stroke-width:1"
         x="89.79142"
         y="59.144131">Soluciones de Fulfillment, Simplificando tu Logística</tspan></text><text
       xml:space="preserve"
       style="font-style:normal;font-variant:normal;font-weight:normal;font-stretch:normal;font-size:11.2889px;font-family:sans-serif;-inkscape-font-specification:'sans-serif, Normal';font-variant-ligatures:normal;font-variant-caps:normal;font-variant-numeric:normal;font-variant-east-asian:normal;fill:#000000;stroke:none;stroke-width:1;stroke-dasharray:none;paint-order:stroke markers fill"
       x="139.61668"
       y="88.502884"
       id="text16"><tspan
         id="tspan16"
         style="font-style:normal;font-variant:normal;font-weight:normal;font-stretch:normal;font-size:11.2889px;font-family:sans-serif;-inkscape-font-specification:'sans-serif, Normal';font-variant-ligatures:normal;font-variant-caps:normal;font-variant-numeric:normal;font-variant-east-asian:normal;fill:#000000;stroke-width:1"
         x="139.61668"
         y="88.502884">DE TU NEGOCIO, AL MUNDO</tspan></text></g></svg>
