<?xml version="1.0" encoding="UTF-8" standalone="no"?>
<!-- Created with Inkscape (http://www.inkscape.org/) -->

<svg
   width="377.71945mm"
   height="109.52751mm"
   viewBox="0 0 377.71945 109.52747"
   version="1.1"
   id="svg1"
   xml:space="preserve"
   xmlns="http://www.w3.org/2000/svg"
   xmlns:svg="http://www.w3.org/2000/svg"><defs
     id="defs1"><linearGradient
       id="swatch1"><stop
         style="stop-color:#000000;stop-opacity:1;"
         offset="0"
         id="stop1" /></linearGradient></defs><g
     id="layer1"
     transform="translate(-0.03409058,-0.39914922)"><g
       id="g12"
       transform="matrix(1.1669653,0,0,1.1517831,-0.07310206,-28.511116)"><g
         id="g14"><path
           style="fill:none;stroke:#008000;stroke-width:0.983081;stroke-dasharray:none;paint-order:markers fill stroke"
           d="M 44.881039,25.796198 89.342105,70.13665 44.954674,114.43426 0.78553617,70.167994 Z"
           id="path6" /></g></g><g
       id="g13"
       transform="matrix(1.1669653,0,0,1.1517831,-0.07310206,-28.511116)"><g
         id="g11"><g
           id="g15"><path
             style="fill:none;stroke:#008000;stroke-width:0.983928;stroke-dasharray:none"
             d="M 44.820034,30.583491 89.220036,75.06171 44.893567,119.49696 0.78509334,75.093153 Z"
             id="path6-8" /></g></g></g><g
       id="g10"
       transform="matrix(1.1669653,0,0,1.1517831,-0.07310206,-28.511116)"><g
         id="g9"><path
           style="display:inline;fill:#008080;stroke:#008080;stroke-width:1;stroke-dasharray:none;paint-order:stroke markers fill"
           d="M 19.330172,51.603796 40.04012,72.362625 19.275979,93.757415 11.386753,85.631231 24.109186,72.618178 11.224176,59.740074 Z"
           id="path7" /></g></g><path
       style="fill:#008080;stroke:#008080;stroke-width:1.15935;stroke-dasharray:none"
       d="M 27.881602,84.347956 52.106435,60.494587 77.073411,84.410374 67.590437,93.497055 52.404656,78.843568 37.376356,93.684315 Z"
       id="path7-7" /><path
       style="fill:#008080;stroke:#008080;stroke-width:1.15935;stroke-dasharray:none"
       d="M 76.917263,25.534939 52.692431,49.388307 27.725454,25.472523 l 9.482974,-9.086681 15.185781,14.653484 15.0283,-14.840741 z"
       id="path7-7-4" /><path
       style="fill:#008080;stroke:#008080;stroke-width:1.15935;stroke-dasharray:none"
       d="M 82.145725,79.057571 57.977935,55.147902 82.208966,30.505744 91.415413,39.865346 76.568782,54.85356 91.605138,69.686343 Z"
       id="path7-7-0" /><path
       style="fill:#008000;stroke:#008080;stroke-width:1.15935;stroke-dasharray:none"
       d="M 31.911711,40.654477 46.567387,54.880216 32.223573,69.851297 22.89064,61.065692 28.340483,55.157425 23.373623,50.017139 Z"
       id="path8" /><path
       style="fill:#008000;stroke:#008080;stroke-width:1.15935;stroke-dasharray:none"
       d="M 37.77372,75.212275 52.186975,60.747268 67.355398,74.90447 58.453985,84.115982 52.467838,78.737041 47.259796,83.639282 Z"
       id="path8-3" /><path
       style="fill:#008000;stroke:#008080;stroke-width:1.15935;stroke-dasharray:none"
       d="M 73.285373,68.968784 58.629697,54.743046 72.973511,39.771963 l 9.332933,8.785606 -5.449843,5.908268 4.96686,5.140286 z"
       id="path8-3-7" /><path
       style="fill:#008000;stroke:#008080;stroke-width:1.15935;stroke-dasharray:none"
       d="M 67.130356,34.690253 52.717102,49.15526 37.548678,34.998058 l 8.901414,-9.211512 5.986147,5.378941 5.208042,-4.902241 z"
       id="path8-3-7-4" /><rect
       style="fill:#008000;stroke:#008080;stroke-width:1.66475;stroke-dasharray:none"
       id="rect9"
       width="7.9785833"
       height="7.7728705"
       x="46.575459"
       y="-25.607033"
       transform="matrix(0.71067149,0.70352401,-0.73699183,0.67590165,0,0)" /><rect
       style="fill:#008000;stroke:#008080;stroke-width:1.66475;stroke-dasharray:none"
       id="rect9-8"
       width="7.9785833"
       height="7.7728705"
       x="94.831497"
       y="-25.796322"
       transform="matrix(0.71067149,0.70352401,-0.73699183,0.67590165,0,0)" /><rect
       style="fill:#008000;stroke:#008080;stroke-width:1.66475;stroke-dasharray:none"
       id="rect9-7"
       width="7.9785833"
       height="7.7728705"
       x="49.16354"
       y="22.491215"
       transform="matrix(0.71067149,0.70352401,-0.73699183,0.67590165,0,0)" /><rect
       style="fill:#008000;stroke:#008080;stroke-width:1.66475;stroke-dasharray:none"
       id="rect9-2"
       width="7.9785833"
       height="7.7728705"
       x="97.267128"
       y="22.313322"
       transform="matrix(0.71067149,0.70352401,-0.73699183,0.67590165,0,0)" /><text
       xml:space="preserve"
       style="font-style:normal;font-variant:normal;font-weight:normal;font-stretch:normal;font-size:11.2889px;font-family:sans-serif;-inkscape-font-specification:'sans-serif, Normal';font-variant-ligatures:normal;font-variant-caps:normal;font-variant-numeric:normal;font-variant-east-asian:normal;fill:#008000;stroke:none;stroke-width:1;stroke-dasharray:none;paint-order:stroke markers fill"
       x="85.818565"
       y="32.759037"
       id="text15"><tspan
         id="tspan15"
         style="font-style:normal;font-variant:normal;font-weight:normal;font-stretch:normal;font-size:11.2889px;font-family:sans-serif;-inkscape-font-specification:'sans-serif, Normal';font-variant-ligatures:normal;font-variant-caps:normal;font-variant-numeric:normal;font-variant-east-asian:normal;stroke:none;stroke-width:1"
         x="85.818565"
         y="32.759037">Soluciones de Fulfillment, Simplificando tu Logística</tspan></text><text
       xml:space="preserve"
       style="font-style:normal;font-variant:normal;font-weight:normal;font-stretch:normal;font-size:11.2889px;font-family:sans-serif;-inkscape-font-specification:'sans-serif, Normal';font-variant-ligatures:normal;font-variant-caps:normal;font-variant-numeric:normal;font-variant-east-asian:normal;fill:#000000;stroke:none;stroke-width:1;stroke-dasharray:none;paint-order:stroke markers fill"
       x="135.81276"
       y="58.444317"
       id="text16"><tspan
         id="tspan16"
         style="font-style:normal;font-variant:normal;font-weight:normal;font-stretch:normal;font-size:11.2889px;font-family:sans-serif;-inkscape-font-specification:'sans-serif, Normal';font-variant-ligatures:normal;font-variant-caps:normal;font-variant-numeric:normal;font-variant-east-asian:normal;fill:#000000;stroke-width:1"
         x="135.81276"
         y="58.444317">DE TU NEGOCIO, AL MUNDO</tspan></text></g></svg>
